<svg width="16" height="16" viewBox="0 0 16 16" fill="none" xmlns="http://www.w3.org/2000/svg">
<rect width="16" height="16" rx="3" fill="#FDDC37"/>
<path d="M6.11967 6.337C6.09411 6.07919 5.98438 5.87891 5.79048 5.73615C5.59659 5.59339 5.33345 5.52202 5.00107 5.52202C4.77521 5.52202 4.58452 5.55398 4.42898 5.6179C4.27344 5.67969 4.15412 5.76598 4.07102 5.87678C3.99006 5.98757 3.94957 6.11328 3.94957 6.25391C3.94531 6.37109 3.96982 6.47337 4.02308 6.56072C4.07848 6.64808 4.15412 6.72372 4.25 6.78764C4.34588 6.84943 4.45668 6.90376 4.58239 6.95064C4.7081 6.99538 4.84233 7.03374 4.98509 7.0657L5.57315 7.20632C5.85866 7.27024 6.12074 7.35547 6.35938 7.462C6.59801 7.56854 6.80469 7.69957 6.9794 7.85511C7.15412 8.01065 7.28942 8.19389 7.3853 8.40483C7.48331 8.61577 7.53338 8.8576 7.53551 9.13033C7.53338 9.53089 7.43111 9.8782 7.22869 10.1722C7.02841 10.4641 6.73864 10.6911 6.35938 10.853C5.98224 11.0128 5.52734 11.0927 4.99467 11.0927C4.46626 11.0927 4.00604 11.0117 3.61399 10.8498C3.22408 10.6879 2.91939 10.4482 2.69993 10.1307C2.4826 9.81108 2.36861 9.41584 2.35795 8.94496H3.69709C3.712 9.16442 3.77486 9.34766 3.88565 9.49467C3.99858 9.63956 4.14879 9.74929 4.33629 9.82386C4.52592 9.89631 4.74006 9.93253 4.97869 9.93253C5.21307 9.93253 5.41655 9.89844 5.58913 9.83026C5.76385 9.76207 5.89915 9.66726 5.99503 9.54581C6.09091 9.42436 6.13885 9.2848 6.13885 9.12713C6.13885 8.98011 6.09517 8.85653 6.00781 8.75639C5.92259 8.65625 5.79688 8.57102 5.63068 8.50071C5.46662 8.4304 5.26527 8.36648 5.02663 8.30895L4.31392 8.12997C3.76207 7.99574 3.32635 7.78587 3.00675 7.50036C2.68714 7.21484 2.52841 6.83026 2.53054 6.34659C2.52841 5.95028 2.63388 5.60405 2.84695 5.30788C3.06214 5.01172 3.35724 4.78054 3.73224 4.61435C4.10724 4.44815 4.53338 4.36506 5.01065 4.36506C5.49645 4.36506 5.92045 4.44815 6.28267 4.61435C6.64702 4.78054 6.9304 5.01172 7.13281 5.30788C7.33523 5.60405 7.43963 5.94709 7.44602 6.337H6.11967ZM8.46635 11V4.45455H9.85023V7.34055H9.93652L12.292 4.45455H13.9507L11.5218 7.3853L13.9795 11H12.324L10.531 8.30895L9.85023 9.13991V11H8.46635Z" fill="black"/>
</svg>
